# xmcd
#
# Track frame offsets:
#	150
#	7954
#	24005
#	40211
#	64814
#	73340
#	87068
#	97272
#	110325
#	130944
#	141036
#	152138
#	162192
#	180798
#	193279
#	203183
#	215337
#	232444
#	244786
#	272089
#	290092
#	299620
#
# Disc length: 4155 seconds
#
# Revision: 0
# Processed by: cddbd v1.5.2PL0 Copyright (c) Steve Scherf et al.
# Submitted via: EZCDAudioConverter 2.1.0.2
#
DISCID=4c103916
DTITLE=Carré de deux - Les transformations
DYEAR=2005
DGENRE=Musique traditionnelle
TTITLE0=En revenant des noces
TTITLE1=Je fais l'amour à une brune, Jean s'en va-t-aux vignes ...
TTITLE2=Quand j'tétais fille à votre âge
TTITLE3=Les transformations, c'est dans le ville de Luthenay
TTITLE4=La delaïssado
TTITLE5=Valse de Georges Sand
TTITLE6=Où allez-vous bergère
TTITLE7=Bourrée de Fontfrin, bourrée de M. Perot
TTITLE8=Germine voilà mon sac bien garni
TTITLE9=Tout à l'entour d'une fontaine, Ton petit cotillon Jeannette, J'enmène
TTITLE9=la p'tit' Marie
TTITLE10=Ni battre ni vanner, La fille du geôlier
TTITLE11=Aquesta nuec n'ai fat un sounge, Rossignol sauvage
TTITLE12=L'amant confesseur, Sainte Reine
TTITLE13=Ah ! que je suis malheureuse, La Sarrasine
TTITLE14=Nous étions trois amis, Sainte Reine
TTITLE15=La danse des cochons
TTITLE16=Par un beau clair de lune, Là-bas dans la prairie
TTITLE17=Angélique
TTITLE18=As-tu vus le loup, De quoi vivez-vous, Aimer n'est pas un crime
TTITLE19=Mon père a fait bâtir château, Mon père a fait bâtir maison
TTITLE20=Vira la bouize
TTITLE21=La couturière
EXTD=
EXTT0=
EXTT1=
EXTT2=
EXTT3=
EXTT4=
EXTT5=
EXTT6=
EXTT7=
EXTT8=
EXTT9=
EXTT10=
EXTT11=
EXTT12=
EXTT13=
EXTT14=
EXTT15=
EXTT16=
EXTT17=
EXTT18=
EXTT19=
EXTT20=
EXTT21=
PLAYORDER=
